# xmcd CD database file
#
# Track frame offsets:
#	150
#	44207
#	93202
#	134947
#	150222
#	165345
#	198672
#	262905
#
# Disc length: 3906 seconds
#
# Revision: 1
# Processed by: cddbd v1.5PL3 Copyright (c) Steve Scherf et al.
# Submitted via: CDex 1.51
#
DISCID=680f4008
DTITLE=Various Artist - Golden Box of Blues CD 2
DYEAR=1993
DGENRE=Blues
TTITLE0=Bag's Groove
TTITLE1=Blue Monk
TTITLE2=Ray's Blues
TTITLE3=Au Privave
TTITLE4=Hot Club Blues
TTITLE5=Royal Garden Club Blues
TTITLE6=Gree Lobsters Dream
TTITLE7=Blues for Red
EXTD=YEAR: 1993
EXTT0=
EXTT1=
EXTT2=
EXTT3=
EXTT4=
EXTT5=
EXTT6=
EXTT7=
PLAYORDER=
